<?xml version="1.0" standalone="no"?>
<!DOCTYPE svg PUBLIC "-//W3C//DTD SVG 20010904//EN"
 "http://www.w3.org/TR/2001/REC-SVG-20010904/DTD/svg10.dtd">
<svg version="1.0" xmlns="http://www.w3.org/2000/svg"
 width="1024.000000pt" height="1024.000000pt" viewBox="0 0 1024.000000 1024.000000"
 preserveAspectRatio="xMidYMid meet">

<g transform="translate(0.000000,1024.000000) scale(0.100000,-0.100000)"
fill="#000000" stroke="none">
<path d="M0 5120 l0 -5120 5120 0 5120 0 0 5120 0 5120 -5120 0 -5120 0 0
-5120z m3837 1807 c17 -17 18 -103 21 -1738 2 -1539 1 -1723 -13 -1750 -43
-81 -331 -528 -357 -553 l-31 -28 -266 5 c-295 5 -379 16 -570 74 -125 37
-287 110 -390 174 -484 304 -801 876 -801 1448 0 102 3 128 17 143 15 17 41
18 394 18 l378 0 15 -22 c13 -18 16 -52 16 -160 0 -75 5 -172 11 -215 29 -218
158 -433 335 -559 159 -114 410 -188 466 -137 17 15 18 80 18 1648 0 1542 1
1633 18 1648 22 20 51 22 414 22 281 0 309 -2 325 -18z m964 -6 c18 -22 19
-49 19 -752 l0 -728 52 -68 c29 -37 90 -114 136 -171 70 -85 87 -101 98 -90 7
7 112 180 235 383 122 204 249 415 282 470 33 55 169 282 302 505 134 223 256
421 273 440 l31 35 508 -2 c545 -1 594 -5 799 -57 509 -129 933 -476 1178
-964 104 -207 162 -388 207 -639 30 -170 38 -515 15 -673 -42 -282 -95 -466
-194 -672 -263 -549 -702 -904 -1273 -1032 -181 -40 -288 -46 -835 -46 -501 0
-515 1 -534 20 -20 20 -20 33 -20 896 l0 875 108 177 c60 97 160 260 222 362
62 102 119 193 128 203 13 15 34 17 159 17 130 0 145 -2 163 -20 20 -20 20
-33 20 -889 0 -799 1 -870 17 -882 38 -32 360 -5 503 42 78 25 201 85 267 130
79 54 217 200 278 292 251 385 304 925 134 1375 -106 283 -295 506 -524 620
-173 86 -322 112 -648 112 l-228 0 -22 -24 c-12 -14 -101 -156 -198 -318 -243
-404 -646 -1070 -764 -1263 -54 -88 -303 -502 -554 -920 -250 -418 -465 -770
-477 -782 l-23 -23 -414 0 c-356 0 -416 2 -427 15 -7 8 -10 23 -8 32 3 10 71
128 153 263 81 135 169 281 195 325 26 44 84 141 130 215 139 227 382 634 393
657 7 17 6 29 -8 50 -10 15 -153 196 -317 401 -164 205 -300 382 -303 395 -3
12 -4 399 -3 859 2 662 6 840 16 850 19 19 90 23 425 23 l309 0 19 -24z"/>
</g>
</svg>
